<?xml version="1.0" encoding="UTF-8" standalone="no"?>
<!-- Created with Inkscape (http://www.inkscape.org/) -->

<svg
   xmlns:dc="http://purl.org/dc/elements/1.1/"
   xmlns:cc="http://creativecommons.org/ns#"
   xmlns:rdf="http://www.w3.org/1999/02/22-rdf-syntax-ns#"
   xmlns:svg="http://www.w3.org/2000/svg"
   xmlns="http://www.w3.org/2000/svg"
   xmlns:sodipodi="http://sodipodi.sourceforge.net/DTD/sodipodi-0.dtd"
   xmlns:inkscape="http://www.inkscape.org/namespaces/inkscape"
   width="210mm"
   height="297mm"
   viewBox="0 0 210 297"
   version="1.1"
   id="svg8"
   inkscape:version="0.92.4 (5da689c313, 2019-01-14)"
   sodipodi:docname="hobby_3.svg"
   inkscape:export-filename="/home/antony/Pit/Projects/Portfolio_Projects/StaticPortfolio/static/images/hobby_3.svg.png"
   inkscape:export-xdpi="96"
   inkscape:export-ydpi="96">
  <defs
     id="defs2" />
  <sodipodi:namedview
     id="base"
     pagecolor="#ffffff"
     bordercolor="#666666"
     borderopacity="1.0"
     inkscape:pageopacity="0.0"
     inkscape:pageshadow="2"
     inkscape:zoom="0.49497475"
     inkscape:cx="104.31859"
     inkscape:cy="670.64191"
     inkscape:document-units="mm"
     inkscape:current-layer="layer1"
     showgrid="false"
     inkscape:snap-nodes="false"
     inkscape:window-width="1366"
     inkscape:window-height="705"
     inkscape:window-x="0"
     inkscape:window-y="26"
     inkscape:window-maximized="1" />
  <metadata
     id="metadata5">
    <rdf:RDF>
      <cc:Work
         rdf:about="">
        <dc:format>image/svg+xml</dc:format>
        <dc:type
           rdf:resource="http://purl.org/dc/dcmitype/StillImage" />
        <dc:title />
      </cc:Work>
    </rdf:RDF>
  </metadata>
  <g
     inkscape:label="Layer 1"
     inkscape:groupmode="layer"
     id="layer1">
    <rect
       style="opacity:0;fill:#008000;fill-opacity:0.99043059;stroke:#4d4d4d;stroke-width:0.46499997;stroke-miterlimit:4;stroke-dasharray:none;stroke-dashoffset:0;stroke-opacity:1"
       id="rect14"
       width="100.54167"
       height="49.136906"
       x="40.065475"
       y="34.684521"
       ry="0" />
    <path
       style="fill:none;stroke:#000000;stroke-width:1.165;stroke-linecap:butt;stroke-linejoin:miter;stroke-opacity:1;stroke-miterlimit:4;stroke-dasharray:none"
       d="m 6.4144686,128.08566 c 0,0 0,-28.330572 34.7450374,-39.021352 C 75.904544,78.373525 139.51469,75.16629 147.53278,52.181111 155.55086,29.195934 171.58703,18.505152 185.48505,19.57423"
       id="path20"
       inkscape:connector-curvature="0" />
    <path
       inkscape:connector-curvature="0"
       id="path827"
       d="m 8.5526248,153.74353 c 0,0 0,-28.33057 34.7450372,-39.02135 C 78.0427,104.0314 141.65285,100.82416 149.67094,77.838986 157.68902,54.853809 173.72519,44.163027 187.62321,45.232105"
       style="fill:none;stroke:#000000;stroke-width:1.16499996;stroke-linecap:butt;stroke-linejoin:miter;stroke-miterlimit:4;stroke-dasharray:none;stroke-opacity:1" />
    <path
       style="fill:none;stroke:#000000;stroke-width:1.16499996;stroke-linecap:butt;stroke-linejoin:miter;stroke-miterlimit:4;stroke-dasharray:none;stroke-opacity:1"
       d="m 11.759859,179.4014 c 0,0 0,-28.33057 34.745037,-39.02135 34.745038,-10.69078 98.355184,-13.89802 106.373274,-36.88319 8.01808,-22.985176 24.05425,-33.675958 37.95227,-32.60688"
       id="path829"
       inkscape:connector-curvature="0" />
    <path
       inkscape:connector-curvature="0"
       id="path831"
       d="m 11.759859,208.26651 c 0,0 0,-28.33057 34.745037,-39.02135 34.745038,-10.69078 98.355184,-13.89802 106.373274,-36.88319 8.01808,-22.98518 24.05425,-33.675959 37.95227,-32.606881"
       style="fill:none;stroke:#000000;stroke-width:1.16499996;stroke-linecap:butt;stroke-linejoin:miter;stroke-miterlimit:4;stroke-dasharray:none;stroke-opacity:1" />
    <path
       style="fill:none;stroke:#000000;stroke-width:1.66499996;stroke-linecap:butt;stroke-linejoin:miter;stroke-miterlimit:4;stroke-dasharray:none;stroke-opacity:1"
       d="m 50.781209,139.31098 c 0,0 1.069079,-33.14142 15.501634,-29.39965 14.432552,3.74178 14.432552,52.91937 10.15624,62.54107 -4.276312,9.6217 -25.657874,34.2105 -35.279577,6.94901 C 31.537804,152.13992 39.55589,114.18764 44.901281,100.82417 50.246671,87.460689 55.59206,77.571716 53.988444,67.415476 52.384826,57.259234 41.694047,32.937706 36.348656,43.628487 c -5.34539,10.69078 72.898214,200.452163 37.952273,200.452153 -12.027129,-10e-6 1.603616,-19.77795 1.603616,-19.77795"
       id="path833"
       inkscape:connector-curvature="0"
       sodipodi:nodetypes="csssssssc" />
    <ellipse
       ry="6.1181512"
       rx="4.3140817"
       cy="111.12991"
       cx="82.489685"
       id="ellipse849"
       style="opacity:1;fill:#000000;fill-opacity:0.99043059;stroke:#000000;stroke-width:1.72309613;stroke-miterlimit:4;stroke-dasharray:none;stroke-dashoffset:0;stroke-opacity:1" />
    <path
       sodipodi:nodetypes="csscc"
       inkscape:connector-curvature="0"
       id="path851"
       d="m 78.681086,114.20349 c 0,0 10.15624,2.6727 8.55262,-10.15624 -1.60361,-12.828942 -9.88897,-21.782472 -2.93996,-18.842502 6.949,2.93996 13.89801,5.34539 13.89801,5.34539 0,0 12.695304,28.998752 3.608144,26.994232"
       style="fill:none;stroke:#000000;stroke-width:1.46500003;stroke-linecap:butt;stroke-linejoin:miter;stroke-miterlimit:4;stroke-dasharray:none;stroke-opacity:1" />
    <ellipse
       style="opacity:1;fill:#000000;fill-opacity:0.99043059;stroke:#000000;stroke-width:1.72309613;stroke-miterlimit:4;stroke-dasharray:none;stroke-dashoffset:0;stroke-opacity:1"
       id="ellipse853"
       cx="100.66402"
       cy="116.4753"
       rx="4.3140817"
       ry="6.1181512" />
    <path
       style="fill:none;stroke:#000000;stroke-width:1.46500003;stroke-linecap:butt;stroke-linejoin:miter;stroke-miterlimit:4;stroke-dasharray:none;stroke-opacity:1"
       d="m 124.29954,152.97061 c 0,0 10.15624,2.6727 8.55262,-10.15624 -1.60361,-12.82894 -13.36347,-23.65336 -0.53453,-18.8425"
       id="path857"
       inkscape:connector-curvature="0"
       sodipodi:nodetypes="csc" />
    <ellipse
       ry="6.1181512"
       rx="4.3140817"
       cy="151.23338"
       cx="126.50452"
       id="ellipse859"
       style="opacity:1;fill:#000000;fill-opacity:0.99043059;stroke:#000000;stroke-width:1.72309613;stroke-miterlimit:4;stroke-dasharray:none;stroke-dashoffset:0;stroke-opacity:1" />
    <path
       sodipodi:nodetypes="csc"
       inkscape:connector-curvature="0"
       id="path861"
       d="m 124.29954,152.97061 c 0,0 10.15624,2.6727 8.55262,-10.15624 -1.60361,-12.82894 -13.36347,-23.65336 -0.53453,-18.8425"
       style="fill:none;stroke:#000000;stroke-width:1.46500003;stroke-linecap:butt;stroke-linejoin:miter;stroke-miterlimit:4;stroke-dasharray:none;stroke-opacity:1" />
    <ellipse
       ry="6.1181512"
       rx="4.3140817"
       cy="100.54657"
       cx="153.92719"
       id="ellipse863"
       style="opacity:1;fill:#000000;fill-opacity:0.99043059;stroke:#000000;stroke-width:1.72309613;stroke-miterlimit:4;stroke-dasharray:none;stroke-dashoffset:0;stroke-opacity:1" />
    <path
       sodipodi:nodetypes="csscc"
       inkscape:connector-curvature="0"
       id="path865"
       d="m 150.11859,103.62016 c 0,0 10.15624,2.6727 8.55262,-10.156245 -1.60361,-12.82894 -9.88897,-21.78247 -2.93996,-18.8425 6.949,2.93996 13.89801,5.34539 13.89801,5.34539 0,0 12.6953,28.998755 3.60814,26.994235"
       style="fill:none;stroke:#000000;stroke-width:1.46500003;stroke-linecap:butt;stroke-linejoin:miter;stroke-miterlimit:4;stroke-dasharray:none;stroke-opacity:1" />
    <ellipse
       style="opacity:1;fill:#000000;fill-opacity:0.99043059;stroke:#000000;stroke-width:1.72309613;stroke-miterlimit:4;stroke-dasharray:none;stroke-dashoffset:0;stroke-opacity:1"
       id="ellipse867"
       cx="172.10152"
       cy="105.89197"
       rx="4.3140817"
       ry="6.1181512" />
    <path
       style="fill:none;stroke:#000000;stroke-width:1.46500003;stroke-linecap:butt;stroke-linejoin:miter;stroke-miterlimit:4;stroke-dasharray:none;stroke-opacity:1"
       d="m 159.8293,37.309892 c 0,0 10.15624,2.6727 8.55262,-10.15624 -1.60361,-12.82894 -13.36347,-23.6533596 -0.53453,-18.8424996"
       id="path869"
       inkscape:connector-curvature="0"
       sodipodi:nodetypes="csc" />
    <ellipse
       ry="6.1181512"
       rx="4.3140817"
       cy="35.572662"
       cx="162.03429"
       id="ellipse871"
       style="opacity:1;fill:#000000;fill-opacity:0.99043059;stroke:#000000;stroke-width:1.72309613;stroke-miterlimit:4;stroke-dasharray:none;stroke-dashoffset:0;stroke-opacity:1" />
    <path
       sodipodi:nodetypes="csc"
       inkscape:connector-curvature="0"
       id="path873"
       d="m 159.8293,37.309892 c 0,0 10.15624,2.6727 8.55262,-10.15624 -1.60361,-12.82894 -13.36347,-23.6533596 -0.53453,-18.8424996"
       style="fill:none;stroke:#000000;stroke-width:1.46500003;stroke-linecap:butt;stroke-linejoin:miter;stroke-miterlimit:4;stroke-dasharray:none;stroke-opacity:1" />
  </g>
</svg>
