<?xml version="1.0" encoding="UTF-8" standalone="no"?>
<!DOCTYPE svg PUBLIC "-//W3C//DTD SVG 20010904//EN"
              "http://www.w3.org/TR/2001/REC-SVG-20010904/DTD/svg10.dtd">

<svg xmlns="http://www.w3.org/2000/svg"
    width="3.75333in" height="3.2in"
     viewBox="0 0 1126 960">
  <path id="Selection"
        fill="white" stroke="black" stroke-width="10"
        d="M 0.00,0.00
           C 0.00,0.00 0.00,960.00 0.00,960.00
             0.00,960.00 1126.00,960.00 1126.00,960.00
             1126.00,960.00 1126.00,0.00 1126.00,0.00
             1126.00,0.00 0.00,0.00 0.00,0.00 Z
           M 537.00,189.00
           C 537.00,189.00 565.86,240.00 565.86,240.00
             565.86,240.00 616.86,331.00 616.86,331.00
             616.86,331.00 771.14,606.00 771.14,606.00
             771.14,606.00 827.15,706.00 827.15,706.00
             827.15,706.00 837.23,724.00 837.23,724.00
             838.25,725.90 840.57,729.64 840.13,731.79
             839.66,734.10 835.88,736.14 834.00,737.34
             832.71,738.16 830.55,739.64 829.04,739.85
             825.67,740.30 823.37,736.28 821.58,734.00
             821.58,734.00 807.40,716.00 807.40,716.00
             787.57,691.22 766.54,667.21 744.91,644.00
             744.91,644.00 731.04,630.00 731.04,630.00
             731.04,630.00 709.00,607.04 709.00,607.04
             709.00,607.04 700.00,598.96 700.00,598.96
             700.00,598.96 685.00,584.09 685.00,584.09
             641.87,543.90 595.59,506.64 546.00,474.69
             546.00,474.69 498.00,446.31 498.00,446.31
             498.00,446.31 464.00,429.00 464.00,429.00
             464.00,429.00 451.05,466.00 451.05,466.00
             451.05,466.00 423.42,540.00 423.42,540.00
             423.42,540.00 376.05,667.00 376.05,667.00
             376.05,667.00 344.00,753.00 344.00,753.00
             344.00,753.00 328.00,748.00 328.00,748.00
             328.00,748.00 339.95,715.00 339.95,715.00
             339.95,715.00 365.58,646.00 365.58,646.00
             365.58,646.00 421.05,497.00 421.05,497.00
             421.05,497.00 449.00,422.00 449.00,422.00
             449.00,422.00 419.00,411.00 419.00,411.00
             396.69,403.40 374.23,396.61 351.00,392.42
             326.83,388.06 302.53,385.96 278.00,386.00
             278.00,386.00 238.00,389.43 238.00,389.43
             238.00,389.43 211.00,394.00 211.00,394.00
             210.56,390.86 207.67,380.78 209.11,378.58
             210.53,376.41 219.30,375.37 222.00,374.92
             235.06,372.74 248.75,370.16 262.00,370.00
             262.00,370.00 280.00,369.00 280.00,369.00
             280.00,369.00 290.00,369.00 290.00,369.00
             290.00,369.00 308.00,370.00 308.00,370.00
             308.00,370.00 327.00,371.84 327.00,371.84
             354.25,374.75 380.86,380.85 407.00,388.98
             419.63,392.90 443.99,400.90 455.00,407.00
             455.00,407.00 475.58,351.00 475.58,351.00
             475.58,351.00 510.58,257.00 510.58,257.00
             510.58,257.00 527.32,212.00 527.32,212.00
             527.32,212.00 537.00,189.00 537.00,189.00 Z
           M 539.00,228.00
           C 539.00,228.00 511.42,303.00 511.42,303.00
             511.42,303.00 470.00,414.00 470.00,414.00
             476.17,415.76 488.63,422.57 495.00,425.75
             495.00,425.75 548.00,455.95 548.00,455.95
             602.22,489.96 652.23,530.52 699.00,574.09
             699.00,574.09 725.00,599.09 725.00,599.09
             725.00,599.09 736.01,611.00 736.01,611.00
             736.01,611.00 755.83,631.00 755.83,631.00
             761.34,637.09 773.03,650.72 779.00,655.00
             779.00,655.00 766.30,632.00 766.30,632.00
             766.30,632.00 734.30,575.00 734.30,575.00
             734.30,575.00 623.86,378.00 623.86,378.00
             623.86,378.00 567.86,278.00 567.86,278.00
             567.86,278.00 549.86,246.00 549.86,246.00
             549.86,246.00 539.00,228.00 539.00,228.00 Z
           M 779.00,656.00
           C 779.00,656.00 779.00,657.00 779.00,657.00
             779.00,657.00 780.00,656.00 780.00,656.00
             780.00,656.00 779.00,656.00 779.00,656.00 Z" />
</svg>
