<?xml version="1.0" encoding="UTF-8" standalone="no"?>
<!-- Created with Inkscape (http://www.inkscape.org/) -->

<svg
   xmlns:dc="http://purl.org/dc/elements/1.1/"
   xmlns:cc="http://creativecommons.org/ns#"
   xmlns:rdf="http://www.w3.org/1999/02/22-rdf-syntax-ns#"
   xmlns:svg="http://www.w3.org/2000/svg"
   xmlns="http://www.w3.org/2000/svg"
   xmlns:sodipodi="http://sodipodi.sourceforge.net/DTD/sodipodi-0.dtd"
   xmlns:inkscape="http://www.inkscape.org/namespaces/inkscape"
   width="210mm"
   height="297mm"
   viewBox="0 0 210 297"
   version="1.1"
   id="svg8"
   inkscape:version="0.92.5 (2060ec1f9f, 2020-04-08)"
   sodipodi:docname="iron_man_loading.svg"
   inkscape:export-filename="/home/antony/Pit/Projects/Portfolio_Projects/StaticPortfolio/newPortfolio/static/images/iron_man_loading.png"
   inkscape:export-xdpi="96"
   inkscape:export-ydpi="96">
  <defs
     id="defs2" />
  <sodipodi:namedview
     id="base"
     pagecolor="#ffffff"
     bordercolor="#666666"
     borderopacity="1.0"
     inkscape:pageopacity="0.0"
     inkscape:pageshadow="2"
     inkscape:zoom="0.35"
     inkscape:cx="181.8749"
     inkscape:cy="635.45293"
     inkscape:document-units="mm"
     inkscape:current-layer="layer1"
     showgrid="false"
     inkscape:snap-global="false"
     inkscape:window-width="1280"
     inkscape:window-height="657"
     inkscape:window-x="0"
     inkscape:window-y="26"
     inkscape:window-maximized="1" />
  <metadata
     id="metadata5">
    <rdf:RDF>
      <cc:Work
         rdf:about="">
        <dc:format>image/svg+xml</dc:format>
        <dc:type
           rdf:resource="http://purl.org/dc/dcmitype/StillImage" />
        <dc:title></dc:title>
      </cc:Work>
    </rdf:RDF>
  </metadata>
  <g
     inkscape:label="cut_out"
     inkscape:groupmode="layer"
     id="layer1"
     style="opacity:1"
     sodipodi:insensitive="true">
    <path
       style="opacity:0.96399997;fill:#666666;fill-opacity:1;stroke:#0000ff;stroke-width:8.70165443;stroke-miterlimit:4;stroke-dasharray:none;stroke-dashoffset:0;stroke-opacity:0"
       d="M 4.390625,-32.744141 V 1170.6562 H 793.62891 V -32.744141 Z M 414.92969,3.3808594 a 93.046586,103.14812 0 0 1 24.70703,4.6640625 93.046586,103.14812 0 0 1 60.96875,129.2206981 l -0.0684,0.24415 a 93.046586,103.14812 0 0 1 -50.67188,62.94531 v 41.95898 h 21.34961 l 9.51368,-7.5039 c 13.53762,-10.67746 33.03347,-8.37552 43.71093,5.16211 L 624.96484,367.5293 c 8.05225,10.20924 8.71928,23.80472 2.75586,34.45312 l 78.27149,157.91797 A 52.377441,52.377441 0 0 1 738.91211,625 l -0.0371,0.12305 a 52.377441,52.377441 0 0 1 -65.68164,34.19922 52.377441,52.377441 0 0 1 -34.23828,-65.65821 52.377441,52.377441 0 0 1 1.96875,-5.2207 L 568.8418,443.01758 c -8.3322,0.0278 -16.58739,-3.28819 -22.66211,-9.70703 v 139.48047 c 0,0.78485 -0.0359,1.56099 -0.0586,2.33984 v 154.29297 h -0.27343 V 1095.9219 H 431.98047 V 745.63477 a 52.377441,52.377441 0 0 1 -25.43555,-1.45118 V 1094.2402 H 292.67578 V 589.83008 h 0.75391 c -1.27907,-5.46955 -1.97657,-11.1687 -1.97657,-17.03906 V 402.31836 l -19.55273,24.79102 c -6.07627,7.70396 -15.00798,11.76369 -24.07227,11.86914 l -78.70507,158.78515 a 52.377441,52.377441 0 0 1 0.0644,31.27735 l -0.0391,0.12304 a 52.377441,52.377441 0 0 1 -65.67969,34.19922 52.377441,52.377441 0 0 1 -34.240234,-65.66016 52.377441,52.377441 0 0 1 38.189454,-35.27148 l 81.31641,-164.05859 c -6.22795,-10.71088 -5.65814,-24.53635 2.5039,-34.88477 L 291.76562,236.03125 c 10.67747,-13.53763 30.17136,-15.83956 43.70899,-5.16211 l 16.26953,12.83203 c 4.46045,-0.8324 9.05851,-1.28711 13.76758,-1.28711 h 3.35742 V 197.87109 A 93.046586,103.14812 0 0 1 323.0332,75.552734 93.046586,103.14812 0 0 1 414.92969,3.3808594 Z"
       transform="scale(0.26458333)"
       id="rect3898"
       inkscape:connector-curvature="0" />
  </g>
  <g
     inkscape:groupmode="layer"
     id="layer2"
     inkscape:label="iron_man"
     sodipodi:insensitive="true" />
</svg>
