<?xml version="1.0" encoding="UTF-8" standalone="no"?>
<!-- Created with Inkscape (http://www.inkscape.org/) -->

<svg
   xmlns:dc="http://purl.org/dc/elements/1.1/"
   xmlns:cc="http://creativecommons.org/ns#"
   xmlns:rdf="http://www.w3.org/1999/02/22-rdf-syntax-ns#"
   xmlns:svg="http://www.w3.org/2000/svg"
   xmlns="http://www.w3.org/2000/svg"
   xmlns:sodipodi="http://sodipodi.sourceforge.net/DTD/sodipodi-0.dtd"
   xmlns:inkscape="http://www.inkscape.org/namespaces/inkscape"
   width="1920px"
   height="1080px"
   viewBox="0 0 1920 1080"
   version="1.1"
   id="SVGRoot"
   sodipodi:docname="about_2.svg"
   inkscape:version="0.92.4 (5da689c313, 2019-01-14)">
  <defs
     id="defs10">
    <inkscape:perspective
       sodipodi:type="inkscape:persp3d"
       inkscape:vp_x="885.30463 : 115.15827 : 1"
       inkscape:vp_y="-518.67111 : 854.97385 : 0"
       inkscape:vp_z="2524.2648 : 1074.5149 : 1"
       inkscape:persp3d-origin="1796.8507 : 422.69532 : 1"
       id="perspective60" />
    <filter
       inkscape:collect="always"
       style="color-interpolation-filters:sRGB"
       id="filter942"
       x="-0.044517542"
       width="1.0890351"
       y="-0.030218327"
       height="1.0604367">
      <feGaussianBlur
         inkscape:collect="always"
         stdDeviation="7.0644263"
         id="feGaussianBlur944" />
    </filter>
    <filter
       inkscape:collect="always"
       style="color-interpolation-filters:sRGB"
       id="filter970"
       x="-0.062035461"
       width="1.1240709"
       y="-0.13004389"
       height="1.2600878">
      <feGaussianBlur
         inkscape:collect="always"
         stdDeviation="4.9840035"
         id="feGaussianBlur972" />
    </filter>
  </defs>
  <sodipodi:namedview
     id="base"
     pagecolor="#ffffff"
     bordercolor="#666666"
     borderopacity="1.0"
     inkscape:pageopacity="0.0"
     inkscape:pageshadow="2"
     inkscape:zoom="0.7"
     inkscape:cx="1183.1532"
     inkscape:cy="726.50097"
     inkscape:document-units="px"
     inkscape:current-layer="layer1"
     showgrid="false"
     inkscape:window-width="1366"
     inkscape:window-height="705"
     inkscape:window-x="0"
     inkscape:window-y="26"
     inkscape:window-maximized="1"
     inkscape:snap-nodes="false" />
  <metadata
     id="metadata13">
    <rdf:RDF>
      <cc:Work
         rdf:about="">
        <dc:format>image/svg+xml</dc:format>
        <dc:type
           rdf:resource="http://purl.org/dc/dcmitype/StillImage" />
        <dc:title></dc:title>
      </cc:Work>
    </rdf:RDF>
  </metadata>
  <g
     inkscape:label="Layer 1"
     inkscape:groupmode="layer"
     id="layer1">
    <path
       style="fill:#00ffff;stroke:#00ffff;stroke-width:0.51726562px;stroke-linecap:butt;stroke-linejoin:miter;stroke-opacity:1"
       d="m 835.0327,171.36169 c 0,0 -85.82036,21.27685 -110.6631,114.12124 -24.84274,92.84438 32.74725,170.2147 -22.5843,253.3878 -55.33155,83.17309 -5.64608,154.74065 28.23038,166.34618 33.87645,11.60557 138.89349,9.6713 156.96093,-123.79251 18.06744,-133.4638 89.20802,-123.79251 107.27548,-119.92399 18.06741,3.86851 56.46081,46.42219 65.49451,81.23884 9.0337,34.81664 12.4214,104.44993 42.9102,121.85825 30.4887,17.40833 86.9495,73.50182 111.7922,11.60554 24.8427,-61.89625 66.8318,-227.76744 22.5845,-328.82386 -54.2024,-123.7925 -80.52,-132.94658 -126.4722,-158.60917 -70.2037,-39.20607 -114.05079,-59.96198 -165.99471,-61.89625 -51.9439,-1.93425 -109.53389,44.48793 -109.53389,44.48793 z"
       id="path23"
       inkscape:connector-curvature="0"
       sodipodi:nodetypes="cssssscsssssc" />
    <path
       style="opacity:0.46;fill:#666666;fill-opacity:1;stroke:#0000ff;stroke-width:0;stroke-miterlimit:4;stroke-dasharray:none;stroke-opacity:1;filter:url(#filter942)"
       d="m 989.89643,164.68511 c -3.4882,-0.0262 -7.5645,0.86719 -14.4395,3.36719 -15.7143,5.71429 -18.4138,4.35714 -35.5566,1.5 -17.1429,-2.85714 -19.4072,5.22265 -27.9786,15.22265 -8.5714,10 -6.695,19.66825 -11.414,32.52539 -4.5381,12.36426 1.6744,17.64956 -2.6113,29.07813 -4.2858,11.42857 -0.8818,11.50008 -1.3868,31.70312 1.8815,2.11667 3.0622,4.51266 4.295,6.38867 7.3616,27.24873 29.2608,49.46547 58.5058,57.49415 l -0.2187,15.2207 h -54.0528 c -8.6784,0 -16.1149,5.10892 -19.4902,12.49414 -0.8305,0.91369 -1.5961,1.90922 -2.2754,2.99414 l -84.7637,135.36719 c -2.7291,4.35837 -3.6482,9.31683 -2.9746,14.01758 -0.433,1.62855 -0.6364,3.35093 -0.5703,5.1289 l 4.9395,132.84375 c 0.3571,9.60179 8.3753,17.07809 17.9785,16.76367 l 15.9512,-0.52148 c 9.6033,-0.31442 17.0464,-8.29665 16.6894,-17.89844 l -4.418,-118.8418 c 0.2782,-0.38426 0.5491,-0.7773 0.8047,-1.18554 l 36.6992,-58.60938 v 224.58985 c 0,11.87142 9.5583,21.42773 21.4297,21.42773 h 157.14257 c 11.8714,0 21.4277,-9.55631 21.4277,-21.42773 V 478.77105 l 36.0391,57.55664 c 0.403,0.64369 0.8368,1.25599 1.2949,1.83984 l 4.2305,113.7832 c 0.357,9.60178 8.3752,17.07809 17.9785,16.76368 l 15.9512,-0.52344 c 9.6032,-0.31442 17.0465,-8.29665 16.6894,-17.89844 l -4.83,-129.91601 c 0.7693,-4.80132 -0.119,-9.89153 -2.9141,-14.35547 L 1083.285,370.65386 c -0.9799,-1.56498 -2.1318,-2.95427 -3.414,-4.16016 -3.8539,-5.62782 -10.3242,-9.30859 -17.6895,-9.30859 h -54.2441 l -0.3711,-15.71875 c 26.4559,-7.834 46.6195,-27.32065 55.1152,-51.47852 0.086,-0.0146 0.1255,-0.0242 0.2149,-0.0391 8.5714,-1.42857 8.1875,-14.58203 8.1875,-14.58203 0,0 -0.6854,-19.81323 -6.2891,-29.88281 -0.062,-0.24896 -0.1252,-0.49804 -0.1895,-0.7461 -1.5246,-10.5371 0.4336,-12.76612 0.4336,-19.78906 0,-7.14286 7.2294,-29.59514 -4.1992,-33.88086 -11.4285,-4.28571 -20.4037,-6.13449 -24.6894,-13.27734 -4.2857,-7.14286 -18.1683,-7.05494 -31.0254,-9.91211 -7.23217,-1.60715 -10.74377,-3.15973 -15.22847,-3.19336 z"
       id="rect919"
       inkscape:connector-curvature="0" />
    <rect
       style="opacity:1;fill:#0000d4;fill-opacity:1;stroke:#0000ff;stroke-width:0;stroke-miterlimit:4;stroke-dasharray:none;stroke-opacity:1"
       id="rect29"
       width="200"
       height="368.57144"
       x="837.14288"
       y="381.42856"
       ry="21.428562" />
    <path
       style="opacity:1;fill:#ff7f2a;fill-opacity:1;stroke:#ff7f2a;stroke-width:1.88800514;stroke-miterlimit:4;stroke-dasharray:none;stroke-opacity:1"
       d="m 937.14373,195.50857 c -46.66321,0 -84.49133,36.21546 -84.49171,80.88972 0.0316,36.06199 24.99372,67.74847 61.20199,77.68877 l -0.50162,35.03313 c -0.11804,12.61746 13.40677,34.08271 26.77387,33.93332 13.36709,-0.14939 22.79427,-17.57064 22.91231,-30.18811 l -0.92855,-39.27679 c 35.35982,-10.47056 59.48518,-41.7554 59.52548,-77.19032 -4e-4,-44.67429 -37.82853,-80.88975 -84.49177,-80.88972 z"
       id="path27"
       inkscape:connector-curvature="0"
       sodipodi:nodetypes="scccscccs" />
    <rect
       ry="20.837582"
       y="862.396"
       x="613.15063"
       height="201.39156"
       width="57.105812"
       id="rect31"
       style="opacity:1;fill:#0000d4;fill-opacity:1;stroke:#0000ff;stroke-width:0;stroke-miterlimit:4;stroke-dasharray:none;stroke-opacity:1"
       transform="rotate(-32.053384)" />
    <rect
       transform="matrix(0.89192997,0.45217355,0.45217355,-0.89192997,0,0)"
       style="opacity:1;fill:#0000d4;fill-opacity:1;stroke:#0000ff;stroke-width:0;stroke-miterlimit:4;stroke-dasharray:none;stroke-opacity:1"
       id="rect33"
       width="57.105812"
       height="201.39156"
       x="922.04034"
       y="-160.21254"
       ry="20.837582" />
    <rect
       ry="19.742233"
       y="-543.19196"
       x="862.48407"
       height="190.80521"
       width="56.967083"
       id="rect37"
       style="opacity:1;fill:#0000d4;fill-opacity:1;stroke:#0000ff;stroke-width:0;stroke-miterlimit:4;stroke-dasharray:none;stroke-opacity:1"
       transform="matrix(0.97948792,0.20150288,0.22454539,-0.97446363,0,0)" />
    <rect
       transform="matrix(0.99946446,-0.03272303,0.0371602,0.99930932,0,0)"
       style="opacity:1;fill:#0000d4;fill-opacity:1;stroke:#0000ff;stroke-width:0;stroke-miterlimit:4;stroke-dasharray:none;stroke-opacity:1"
       id="rect39"
       width="50.646999"
       height="167.62398"
       x="1055.7972"
       y="562.97571"
       ry="17.343719" />
    <path
       style="fill:#000000;stroke:#000000;stroke-width:1px;stroke-linecap:butt;stroke-linejoin:miter;stroke-opacity:1"
       d="m 891.25525,219.74002 c 0,0 10.17332,23.69399 43.03046,25.12256 32.85715,1.42857 36.8111,-13.79551 48.23967,-26.65265 11.42857,-12.85714 24.97462,7.14721 24.97462,30.00435 0,22.85715 -2.1428,20.00001 2.1429,34.28572 4.2857,14.28571 -1.7857,13.92857 6.7857,12.5 8.5714,-1.42857 8.1889,-14.58158 8.1889,-14.58158 0,0 -0.6933,-20.10153 -6.4076,-30.10153 -1.6736,-11.01015 0.3615,-13.17404 0.3615,-20.31689 0,-7.14286 7.2295,-29.59645 -4.1991,-33.88217 -11.4285,-4.28571 -20.40348,-6.13271 -24.68919,-13.27556 -4.28572,-7.14286 -18.16788,-7.05617 -31.02502,-9.91334 -12.85715,-2.85715 -13.95395,-5.54097 -29.66824,0.17331 -15.71429,5.71429 -18.41299,4.3575 -35.55585,1.50036 -17.14286,-2.85714 -19.40826,5.22408 -27.97969,15.22408 -8.57143,10 -6.6947,19.66824 -11.4137,32.52538 -4.5381,12.36426 1.67368,17.64794 -2.61204,29.07651 -4.28571,11.42857 -0.88012,11.5016 -1.3852,31.70464 4.04061,4.54569 4.84155,10.47354 9.89231,9.46339 5.05076,-1.01016 1.62727,-2.43873 3.64757,-13.55041 2.02031,-11.11167 1.60189,-15.49891 -0.41841,-22.0649 -2.02031,-6.56599 4.05112,-11.72879 6.5765,-18.79986 2.52538,-7.07107 0,-14.14214 7.57615,-19.1929 7.57614,-5.05076 13.93776,0.75149 13.93776,0.75149 z"
       id="path53"
       inkscape:connector-curvature="0"
       sodipodi:nodetypes="csssssccscsssssssccccssc" />
    <ellipse
       style="opacity:1;fill:#808080;fill-opacity:1;stroke:#666666;stroke-width:1.58706307;stroke-miterlimit:4;stroke-dasharray:none;stroke-opacity:1"
       id="path55"
       cx="964.52869"
       cy="481.20932"
       rx="20.559519"
       ry="20.559521" />
    <g
       sodipodi:type="inkscape:box3d"
       id="g62"
       style="opacity:1;fill:#1a1a1a;fill-opacity:1;stroke:#666666;stroke-width:2.29999995;stroke-miterlimit:4;stroke-dasharray:none;stroke-opacity:1"
       inkscape:perspectiveID="#perspective60"
       inkscape:corner0="2.2272366 : 1.3315212 : 0 : 1"
       inkscape:corner7="2.0612917 : 1.2452753 : 0.069241824 : 1">
      <path
         sodipodi:type="inkscape:box3dside"
         id="path64"
         style="fill:#353564;fill-rule:evenodd;stroke:none;stroke-linejoin:round"
         inkscape:box3dsidetype="6"
         d="m 953.76087,516.79498 13.86117,22.84865 32.69696,-11.21988 -13.57003,-22.36872 z"
         points="967.62204,539.64363 1000.319,528.42375 986.74897,506.05503 953.76087,516.79498 " />
      <path
         sodipodi:type="inkscape:box3dside"
         id="path74"
         style="fill:#e9e9ff;fill-rule:evenodd;stroke:none;stroke-linejoin:round"
         inkscape:box3dsidetype="11"
         d="m 986.74897,506.05503 5.37741,-24.3196 14.28932,23.55445 -6.0967,23.13387 z"
         points="992.12638,481.73543 1006.4157,505.28988 1000.319,528.42375 986.74897,506.05503 " />
      <path
         sodipodi:type="inkscape:box3dside"
         id="path66"
         style="fill:#ffffff"
         inkscape:box3dsidetype="5"
         d="m 953.76087,516.79498 3.71084,-24.28748 34.65467,-10.77207 -5.37741,24.3196 z"
         points="957.47171,492.5075 992.12638,481.73543 986.74897,506.05503 953.76087,516.79498 " />
      <path
         sodipodi:type="inkscape:box3dside"
         id="path72"
         style="fill:#d40000;fill-rule:evenodd;stroke:#d40000;stroke-linejoin:round"
         inkscape:box3dsidetype="13"
         d="m 967.62204,539.64363 4.46222,-23.04892 34.33144,-11.30483 -6.0967,23.13387 z"
         points="972.08426,516.59471 1006.4157,505.28988 1000.319,528.42375 967.62204,539.64363 " />
      <path
         sodipodi:type="inkscape:box3dside"
         id="path70"
         style="fill:#aa0000;stroke:#d40000"
         inkscape:box3dsidetype="14"
         d="m 957.47171,492.5075 14.61255,24.08721 34.33144,-11.30483 -14.28932,-23.55445 z"
         points="972.08426,516.59471 1006.4157,505.28988 992.12638,481.73543 957.47171,492.5075 " />
      <path
         sodipodi:type="inkscape:box3dside"
         id="path68"
         style="fill:#ff0000;stroke:#ff0000"
         inkscape:box3dsidetype="3"
         d="m 953.76087,516.79498 3.71084,-24.28748 14.61255,24.08721 -4.46222,23.04892 z"
         points="957.47171,492.5075 972.08426,516.59471 967.62204,539.64363 953.76087,516.79498 " />
    </g>
    <path
       sodipodi:nodetypes="csssssccssc"
       inkscape:connector-curvature="0"
       id="path90"
       d="m 856.51226,524.27149 c 0,0 15.19156,-5.2112 27.91261,10.08891 12.72105,15.30011 2.92367,14.52582 -1.00743,30.33253 -3.93112,15.80673 -6.84738,16.63078 -11.58116,22.16725 -2.6179,3.06181 0.46305,2.35541 -7.96001,-3.30043 -7.22797,-4.85339 -13.24771,-8.48816 -33.52731,-8.85722 -45.37071,-0.82568 -61.51625,16.33311 -61.51625,16.33311 l -12.28684,-45.33946 c 0,0 38.04971,-0.72317 68.4311,3.49436 6.1595,0.85507 9.66025,-12.46518 15.5961,-15.2735 10.85275,-5.13456 15.93919,-9.64555 15.93919,-9.64555 z"
       style="fill:#d45500;stroke:#d45500;stroke-width:1px;stroke-linecap:butt;stroke-linejoin:miter;stroke-opacity:1" />
    <rect
       ry="3.9508514"
       y="27.272268"
       x="1019.8424"
       height="75.03009"
       width="14.8908"
       id="rect88"
       style="opacity:1;fill:#1a1a1a;fill-opacity:1;stroke:#000000;stroke-width:1.60231566;stroke-miterlimit:4;stroke-dasharray:none;stroke-opacity:1"
       transform="matrix(0.87516186,0.48383026,-0.49304471,0.87000397,0,0)" />
    <ellipse
       ry="20.559521"
       rx="20.559519"
       cy="514.91565"
       cx="891.05884"
       id="ellipse86"
       style="opacity:1;fill:#808080;fill-opacity:1;stroke:#666666;stroke-width:1.58706307;stroke-miterlimit:4;stroke-dasharray:none;stroke-opacity:1" />
    <path
       style="fill:#d45500;stroke:#d45500;stroke-width:1px;stroke-linecap:butt;stroke-linejoin:miter;stroke-opacity:1"
       d="m 1014.8981,522.84292 c 0,0 -15.19157,-5.2112 -27.91261,10.08891 -12.72105,15.30011 -2.92367,14.52582 1.00743,30.33253 3.93111,15.80673 6.84741,16.63078 11.58121,22.16725 2.61787,3.06181 -0.4631,2.35541 7.95997,-3.30043 7.2279,-4.85339 13.2477,-8.48816 33.5273,-8.85722 45.3707,-0.82568 61.5162,16.33311 61.5162,16.33311 l 12.2869,-45.33946 c 0,0 -38.0497,-0.72317 -68.4311,3.49436 -6.1595,0.85507 -9.6603,-12.46518 -15.5961,-15.2735 -10.8528,-5.13456 -15.9392,-9.64555 -15.9392,-9.64555 z"
       id="path92"
       inkscape:connector-curvature="0"
       sodipodi:nodetypes="csssssccssc" />
    <rect
       transform="matrix(-0.87516186,0.48383026,0.49304471,0.87000397,0,0)"
       style="opacity:1;fill:#1a1a1a;fill-opacity:1;stroke:#000000;stroke-width:1.60231566;stroke-miterlimit:4;stroke-dasharray:none;stroke-opacity:1"
       id="rect94"
       width="14.8908"
       height="75.03009"
       x="-611.5144"
       y="932.86725"
       ry="3.9508514" />
    <path
       style="fill:#d45500;stroke:#d45500;stroke-width:1px;stroke-linecap:butt;stroke-linejoin:miter;stroke-opacity:1"
       d="m 842.7514,535.13328 c 0,0 16.43606,-3.42686 26.87629,8.45828 10.44022,11.88516 5.78277,25.05562 5.78277,25.05562 0,0 -7.65575,6.53185 -12.63498,-0.74919 -4.97923,-7.28103 -10.62718,-10.43531 -13.41723,-8.26375 -6.02864,4.69224 -11.8732,4.39028 -19.1009,1.66004 -7.2277,-2.73025 -2.12135,-8.49308 -1.8538,-13.68626 0.26756,-5.1932 14.34785,-12.47474 14.34785,-12.47474 z"
       id="path96"
       inkscape:connector-curvature="0"
       sodipodi:nodetypes="cccssccc" />
    <path
       sodipodi:nodetypes="cccssccc"
       inkscape:connector-curvature="0"
       id="path98"
       d="m 1026.2562,529.57744 c 0,0 -16.436,-3.42686 -26.87627,8.45828 -10.44022,11.88516 -5.78277,25.05562 -5.78277,25.05562 0,0 7.65574,6.53185 12.63494,-0.74919 4.9793,-7.28103 10.6272,-10.43531 13.4173,-8.26375 6.0286,4.69224 11.8732,4.39028 19.1009,1.66004 7.2277,-2.73025 2.1213,-8.49308 1.8538,-13.68626 -0.2676,-5.1932 -14.3479,-12.47474 -14.3479,-12.47474 z"
       style="fill:#d45500;stroke:#d45500;stroke-width:1px;stroke-linecap:butt;stroke-linejoin:miter;stroke-opacity:1" />
    <path
       style="opacity:0.37;fill:#000000;stroke:#4d4d4d;stroke-width:0.79262853px;stroke-linecap:butt;stroke-linejoin:miter;stroke-opacity:1;filter:url(#filter970)"
       d="m 857.81261,603.6619 c 0,0 2.39443,8.7032 25.62046,2.7412 23.22605,-5.962 28.65467,31.68043 48.00969,36.31755 19.35504,4.63711 45.8622,-13.41375 45.8622,-26.66264 0,-13.24889 0.96775,-15.23623 3.871,-20.53578 2.90326,-5.29956 14.51626,-7.2869 30.96804,-6.62446 16.4518,0.66245 4.835,-0.53804 7.7383,10.72352 2.9032,11.26156 10.8186,13.68053 12.7118,35.07658 2.9032,9.27423 -0.1273,27.73126 -3.0305,33.03081 -2.9033,5.29956 -0.9678,15.23622 -46.45213,12.58644 -45.48432,-2.64978 -55.16183,-27.82266 -60.96833,-29.81 -5.80652,-1.98733 -16.45178,-5.96199 -25.16155,6.62445 -8.70976,12.58644 -10.64526,14.57378 -30.00029,14.57378 -19.35503,0 -17.41952,-5.45692 -24.19378,-18.04337 -6.77427,-12.58645 7.74201,-30.97753 2.90326,-36.93953 -4.83877,-5.962 12.12183,-13.05855 12.12183,-13.05855 z"
       id="path100"
       inkscape:connector-curvature="0"
       sodipodi:nodetypes="cssssscccscssscc" />
    <path
       style="fill:#ececec;stroke:#ececec;stroke-width:0.80969864px;stroke-linecap:butt;stroke-linejoin:miter;stroke-opacity:1"
       d="m 711.70398,549.17442 54.40635,-5.41033 10.60761,46.3291 -57.59491,13.18453 -37.6715,6.94745 c 0,0 -6.84279,14.69388 -3.13327,-6.94745 3.70952,-21.64132 17.31112,-29.21579 8.65556,-37.87231 -8.65556,-8.65652 -21.3832,-10.42117 -5.30859,-13.66737 16.0746,-3.24619 30.03875,-2.56362 30.03875,-2.56362 z"
       id="path102"
       inkscape:connector-curvature="0"
       sodipodi:nodetypes="cccccsssc" />
    <path
       style="fill:none;stroke:#000000;stroke-width:1px;stroke-linecap:butt;stroke-linejoin:miter;stroke-opacity:1"
       d="m 733.37074,547.14453 9.09138,46.97209"
       id="path909"
       inkscape:connector-curvature="0" />
    <ellipse
       style="opacity:1;fill:#000000;fill-opacity:1;stroke:#0000ff;stroke-width:0;stroke-miterlimit:4;stroke-dasharray:none;stroke-opacity:1"
       id="path911"
       cx="757.10938"
       cy="588.30823"
       rx="6.0609155"
       ry="4.7982244" />
    <path
       sodipodi:nodetypes="cccccsssc"
       inkscape:connector-curvature="0"
       id="path913"
       d="m 1136.6512,543.27721 -54.5986,-2.88365 -8.4496,46.77084 58.1439,10.50176 21.2854,3.67929 c 0,0 12.567,7.79505 7.8588,-13.65116 -4.7083,-21.4462 -7.0294,-20.3011 1.2157,-29.34936 8.2452,-9.04827 20.8774,-11.40075 4.6696,-13.89866 -16.2077,-2.49791 -30.1252,-1.16906 -30.1252,-1.16906 z"
       style="fill:#e5ff80;stroke:#ececec;stroke-width:0.80969864px;stroke-linecap:butt;stroke-linejoin:miter;stroke-opacity:1" />
    <path
       style="fill:#ffffff;stroke:#ffffff;stroke-width:0.87341869px;stroke-linecap:butt;stroke-linejoin:miter;stroke-opacity:1"
       d="m 898.97337,306.03911 71.34062,-0.38463 c 0,0 2.99166,10.30991 -3.29658,17.7933 -3.72737,4.43578 -6.67465,6.99457 -18.84744,9.35994 -8.38995,1.6303 -12.15118,2.72877 -23.34228,-0.58828 -13.95635,-4.13667 -16.06379,-4.53491 -21.80663,-11.29248 -7.41819,-8.72893 -4.04769,-14.88789 -4.04769,-14.88789 z"
       id="path915"
       inkscape:connector-curvature="0"
       sodipodi:nodetypes="ccsssscc" />
  </g>
</svg>
