<?xml version="1.0" encoding="UTF-8" standalone="no"?>
<!-- Created with Inkscape (http://www.inkscape.org/) -->

<svg
   xmlns:dc="http://purl.org/dc/elements/1.1/"
   xmlns:cc="http://creativecommons.org/ns#"
   xmlns:rdf="http://www.w3.org/1999/02/22-rdf-syntax-ns#"
   xmlns:svg="http://www.w3.org/2000/svg"
   xmlns="http://www.w3.org/2000/svg"
   xmlns:sodipodi="http://sodipodi.sourceforge.net/DTD/sodipodi-0.dtd"
   xmlns:inkscape="http://www.inkscape.org/namespaces/inkscape"
   width="210mm"
   height="297mm"
   viewBox="0 0 210 297"
   version="1.1"
   id="svg2063"
   inkscape:version="0.92.4 (5da689c313, 2019-01-14)"
   sodipodi:docname="aim.svg">
  <defs
     id="defs2057" />
  <sodipodi:namedview
     id="base"
     pagecolor="#ffffff"
     bordercolor="#666666"
     borderopacity="1.0"
     inkscape:pageopacity="0.0"
     inkscape:pageshadow="2"
     inkscape:zoom="0.98994949"
     inkscape:cx="486.29567"
     inkscape:cy="617.54567"
     inkscape:document-units="mm"
     inkscape:current-layer="layer1"
     showgrid="false"
     inkscape:snap-global="false"
     inkscape:window-width="1366"
     inkscape:window-height="705"
     inkscape:window-x="0"
     inkscape:window-y="26"
     inkscape:window-maximized="1" />
  <metadata
     id="metadata2060">
    <rdf:RDF>
      <cc:Work
         rdf:about="">
        <dc:format>image/svg+xml</dc:format>
        <dc:type
           rdf:resource="http://purl.org/dc/dcmitype/StillImage" />
        <dc:title></dc:title>
      </cc:Work>
    </rdf:RDF>
  </metadata>
  <g
     inkscape:label="Layer 1"
     inkscape:groupmode="layer"
     id="layer1">
    <path
       style="opacity:1;fill:#4d4d4d;fill-opacity:0;stroke:#00ffff;stroke-width:1.0183382;stroke-miterlimit:4;stroke-dasharray:none;stroke-dashoffset:0;stroke-opacity:1"
       id="path2065"
       sodipodi:type="arc"
       sodipodi:cx="107.34523"
       sodipodi:cy="141.40047"
       sodipodi:rx="52.632736"
       sodipodi:ry="55.33815"
       sodipodi:start="0.30565428"
       sodipodi:end="0.30317242"
       sodipodi:open="true"
       d="M 157.53845,158.05267 A 52.632736,55.33815 0 0 1 91.538281,194.18403 52.632736,55.33815 0 0 1 57.132392,124.81377 52.632736,55.33815 0 0 1 123.08987,88.59632 52.632736,55.33815 0 0 1 157.57761,157.92164" />
    <path
       style="opacity:1;fill:#00ffff;fill-opacity:1;stroke:#00ffff;stroke-width:1.86081612;stroke-miterlimit:4;stroke-dasharray:none;stroke-dashoffset:0;stroke-opacity:1"
       d="m 101.74226,95.370995 a 44.172639,45.920474 0 0 0 -39.057566,32.037325 44.172639,45.920474 0 0 0 28.875757,57.56444 44.172639,45.920474 0 0 0 10.181809,1.95544 v -6.51485 a 38.170813,39.667701 0 0 1 -9.17412,-1.72238 38.170813,39.667701 0 0 1 -24.951965,-49.72616 38.170813,39.667701 0 0 1 34.126085,-27.69495 z"
       id="path2620"
       inkscape:connector-curvature="0" />
    <path
       style="opacity:1;fill:#00ffff;fill-opacity:1;stroke:#00ffff;stroke-width:3.00214195;stroke-miterlimit:4;stroke-dasharray:none;stroke-dashoffset:0;stroke-opacity:1"
       d="m 109.9183,69.266161 a 72.46409,72.860562 0 0 1 64.07296,50.832619 72.46409,72.860562 0 0 1 -47.36997,91.33568 72.46409,72.860562 0 0 1 -16.70299,3.10264 v -10.33693 a 62.618246,62.939483 0 0 0 15.04991,-2.73283 62.618246,62.939483 0 0 0 40.93308,-78.89893 62.618246,62.939483 0 0 0 -55.98299,-43.942707 z"
       id="path2620-6"
       inkscape:connector-curvature="0" />
    <rect
       style="opacity:1;fill:#ff8080;fill-opacity:1;stroke:#ff8080;stroke-width:0.36746201;stroke-miterlimit:4;stroke-dasharray:none;stroke-dashoffset:0;stroke-opacity:1"
       id="rect2662"
       width="1.6132909"
       height="7.8602829"
       x="107.37669"
       y="82.00782"
       ry="1.4951624" />
    <rect
       style="opacity:1;fill:#ff8080;fill-opacity:1;stroke:#ff8080;stroke-width:0.36746201;stroke-miterlimit:4;stroke-dasharray:none;stroke-dashoffset:0;stroke-opacity:1"
       id="rect2662-9"
       width="1.6132909"
       height="7.8602829"
       x="106.90297"
       y="191.7747"
       ry="1.4951625" />
    <rect
       style="opacity:1;fill:#ff8080;fill-opacity:1;stroke:#ff8080;stroke-width:0.36746201;stroke-miterlimit:4;stroke-dasharray:none;stroke-dashoffset:0;stroke-opacity:1"
       id="rect2662-9-1"
       width="1.6132909"
       height="7.8602829"
       x="142.83646"
       y="-161.9978"
       ry="1.4951625"
       transform="rotate(89.401329)" />
    <rect
       style="opacity:1;fill:#ff8080;fill-opacity:1;stroke:#ff8080;stroke-width:0.36746201;stroke-miterlimit:4;stroke-dasharray:none;stroke-dashoffset:0;stroke-opacity:1"
       id="rect2662-9-1-2"
       width="1.6132909"
       height="7.8602824"
       x="142.54073"
       y="-56.958248"
       ry="1.4951625"
       transform="rotate(89.401329)" />
    <rect
       style="opacity:1;fill:#ff8080;fill-opacity:1;stroke:#ff8080;stroke-width:0.81309086;stroke-miterlimit:4;stroke-dasharray:none;stroke-dashoffset:0;stroke-opacity:1"
       id="rect2662-9-1-2-7"
       width="1.7609934"
       height="35.257076"
       x="196.75304"
       y="30.015051"
       ry="3.6328106"
       transform="matrix(0.92720289,0.37455948,-0.75801392,0.65223837,0,0)"
       rx="0.88049668" />
    <rect
       style="opacity:1;fill:#ff8080;fill-opacity:1;stroke:#ff8080;stroke-width:0.81309086;stroke-miterlimit:4;stroke-dasharray:none;stroke-dashoffset:0;stroke-opacity:1"
       id="rect2662-9-1-2-7-0"
       width="1.7609934"
       height="35.257076"
       x="197.47195"
       y="136.1431"
       ry="3.6328106"
       transform="matrix(0.92720289,0.37455948,-0.75801392,0.65223837,0,0)"
       rx="0.88049668" />
    <rect
       style="opacity:1;fill:#ff8080;fill-opacity:1;stroke:#ff8080;stroke-width:0.81309086;stroke-miterlimit:4;stroke-dasharray:none;stroke-dashoffset:0;stroke-opacity:1"
       id="rect2662-9-1-2-7-0-9"
       width="1.7609934"
       height="35.257076"
       x="37.706783"
       y="118.07198"
       ry="3.6328106"
       transform="matrix(-0.92720289,0.37455948,0.75801392,0.65223837,0,0)"
       rx="0.88049668" />
    <rect
       style="opacity:1;fill:#ff8080;fill-opacity:1;stroke:#ff8080;stroke-width:0.81309086;stroke-miterlimit:4;stroke-dasharray:none;stroke-dashoffset:0;stroke-opacity:1"
       id="rect2662-9-1-2-7-0-9-3"
       width="1.7609934"
       height="35.257076"
       x="40.151413"
       y="226.48723"
       ry="3.6328106"
       transform="matrix(-0.92720289,0.37455948,0.75801392,0.65223837,0,0)"
       rx="0.88049668"
       inkscape:transform-center-x="-1.8708867"
       inkscape:transform-center-y="0.53453906" />
  </g>
</svg>
